<?xml version="1.0" encoding="utf-8"?>
<!-- Svg Vector Icons : http://www.onlinewebfonts.com/icon -->
<!DOCTYPE svg PUBLIC "-//W3C//DTD SVG 1.1//EN" "http://www.w3.org/Graphics/SVG/1.1/DTD/svg11.dtd">
<svg version="1.1" xmlns="http://www.w3.org/2000/svg" xmlns:xlink="http://www.w3.org/1999/xlink" x="0px" y="0px" viewBox="0 0 1000 1000" enable-background="new 0 0 1000 1000" xml:space="preserve">
<metadata> Svg Vector Icons : http://www.onlinewebfonts.com/icon </metadata>
<g><g transform="translate(0.000000,512.000000) scale(0.100000,-0.100000)"><path d="M7827.9,4972.6c-46.1-23-99.8-65.2-119-90.2c-24.9-34.5-71-257.1-166.9-813.5l-132.4-765.5L5562.1,1455.8L3714.4-391.8l-63.3,71c-130.5,143.9-504.6,615.9-665.7,838.4c-90.2,126.6-189.9,260.9-220.6,299.3c-67.2,82.5-149.7,105.5-237.9,67.2C2430.9,841.9,464.3-1145.8,385.7-1282C0-1940.1,5.8-2928.2,397.2-3962.3c111.3-295.5,161.2-387.6,228.3-433.6c78.7-51.8,554.5-205.3,821.2-266.7c399.1-88.3,612-113.2,1018.8-113.2c600.5,0,974.6,86.3,1295.1,301.2c105.5,71,2006.9,1958.9,2045.2,2031.8c34.5,67.1,34.5,168.8-1.9,218.7c-15.4,23-128.6,113.2-253.3,199.5c-266.7,188-600.5,449-834.6,650.4l-168.8,145.8L6394.7,619.3c1015,1014.9,1859.1,1849.5,1874.5,1855.3s341.5,78.7,723.3,161.2c383.7,84.4,721.4,166.9,755.9,184.2c65.2,34.5,151.6,193.8,151.6,285.9c0,166.9-1.9,170.8-851.9,1024.5c-529.5,531.5-834.6,823.1-886.4,848C8058.1,5030.2,7931.5,5028.2,7827.9,4972.6z M8764.2,3859.8l715.6-715.6l-648.5-140.1c-356.9-78.7-679.2-149.7-715.6-159.3C8062,2829.5,7661,2440,6072.4,855.3c-1085.9-1084-2045.2-2031.8-2129.6-2104.7c-310.8-270.5-1009.2-830.8-1151.2-920.9l-57.6-36.5l36.5,57.6c99.8,157.3,673.4,871.1,963.1,1199.1c97.9,111.3,1038,1061,2089.3,2110.5c1051.4,1049.5,1922.4,1930.1,1935.9,1957c15.3,26.9,80.6,364.5,147.7,754c67.2,387.6,126.6,704.1,132.4,704.1S8370.9,4253.1,8764.2,3859.8z M2688,254.8c172.7-236,456.6-592.8,606.3-759.8c76.7-86.3,140.1-165,140.1-174.6c0-7.7-42.2-63.3-94-122.8c-303.1-347.3-805.8-990-1007.3-1289.3c-184.2-276.3-232.2-379.9-232.2-512.3c0-99.8,5.8-117,63.3-172.7c55.6-57.6,72.9-63.3,172.7-63.3c80.6,0,138.1,13.4,214.9,51.8c122.8,59.5,418.3,255.2,642.7,425.9c132.4,97.8,800.1,638.9,997.7,805.8l67.2,55.6l65.2-55.6c36.5-30.7,151.6-128.6,255.2-214.9c103.6-88.2,314.6-257.1,472-374.1c155.4-115.1,282-216.8,282-222.5c0-7.7-399.1-410.6-886.4-897.9c-846.1-842.3-896-886.4-1032.2-951.6c-80.6-38.4-222.6-90.2-316.6-113.2c-155.4-38.4-218.7-44.1-633.1-44.1c-399.1,0-491.2,5.8-690.7,44.1c-243.7,46.1-623.5,147.7-802,214.9c-105.5,40.3-107.4,42.2-163.1,178.4c-366.5,880.6-414.4,1816.9-126.6,2377.1c65.2,126.6,155.4,222.6,974.6,1047.5c496.9,496.9,909.4,905.6,915.2,905.6C2580.5,392.9,2632.4,329.6,2688,254.8z"/><path d="M8211.6,3648.8v-178.4l82.5-80.6l80.6-78.7l168.8,11.5c136.2,9.6,166.9,17.3,166.9,42.2c0,42.2-424,462.4-466.2,462.4C8215.5,3827.2,8211.6,3806.1,8211.6,3648.8z"/></g></g>
</svg>